<!-- Generated by IcoMoon.io -->
<svg version="1.1" xmlns="http://www.w3.org/2000/svg" width="37" height="32" viewBox="0 0 37 32">
<path fill="#f4f4fd" d="M36.571 4.66c-1.36 0.597-2.809 0.992-4.32 1.184 1.554-0.933 2.722-2.375 3.283-4.091l0.015-0.053c-1.368 0.826-2.961 1.456-4.658 1.799l-0.096 0.016c-1.374-1.462-3.319-2.372-5.477-2.373h-0c-4.151 0-7.493 3.369-7.493 7.499 0 0.594 0.050 1.166 0.174 1.71-6.233-0.304-11.749-3.291-15.454-7.842-0.643 1.086-1.024 2.393-1.026 3.789v0c0.003 2.586 1.312 4.865 3.304 6.214l0.026 0.017c-1.248-0.035-2.41-0.373-3.424-0.942l0.037 0.019v0.082c0 3.643 2.599 6.67 6.007 7.367-0.572 0.157-1.229 0.247-1.906 0.247-0.021 0-0.042-0-0.063-0l0.003 0c-0.48 0-0.965-0.027-1.419-0.128 0.971 2.969 3.728 5.152 7.006 5.223-2.531 1.994-5.766 3.198-9.282 3.198-0.005 0-0.010 0-0.015 0h0.001c-0.615 0-1.205-0.027-1.794-0.103 3.321 2.142 7.257 3.365 11.502 3.365 13.797 0 21.339-11.429 21.339-21.335 0-0.331-0.011-0.651-0.027-0.969 1.488-1.056 2.738-2.375 3.758-3.893z"></path>
</svg>
